<svg width="324" height="48" viewBox="0 0 324 48" fill="none" xmlns="http://www.w3.org/2000/svg">
<path d="M78.2589 39H72.3117V14.8418C72.3117 13.1602 72.6398 11.7451 73.2961 10.5967C73.966 9.43457 74.9025 8.55957 76.1056 7.97168C77.3224 7.37012 78.7648 7.06934 80.4328 7.06934C80.9796 7.06934 81.506 7.11035 82.0119 7.19238C82.5177 7.26074 83.0099 7.34961 83.4884 7.45898L83.4269 11.9092C83.1671 11.8408 82.8937 11.793 82.6066 11.7656C82.3195 11.7383 81.9845 11.7246 81.6017 11.7246C80.8908 11.7246 80.2824 11.8477 79.7765 12.0938C79.2843 12.3262 78.9084 12.6748 78.6486 13.1396C78.3888 13.6045 78.2589 14.1719 78.2589 14.8418V39ZM82.6886 16.8105V20.9941H69.0099V16.8105H82.6886ZM84.8419 28.1309V27.7002C84.8419 26.0732 85.0744 24.5762 85.5392 23.209C86.0041 21.8281 86.6808 20.6318 87.5695 19.6201C88.4582 18.6084 89.5519 17.8223 90.8507 17.2617C92.1496 16.6875 93.6398 16.4004 95.3214 16.4004C97.0031 16.4004 98.5002 16.6875 99.8127 17.2617C101.125 17.8223 102.226 18.6084 103.114 19.6201C104.017 20.6318 104.7 21.8281 105.165 23.209C105.63 24.5762 105.862 26.0732 105.862 27.7002V28.1309C105.862 29.7441 105.63 31.2412 105.165 32.6221C104.7 33.9893 104.017 35.1855 103.114 36.2109C102.226 37.2227 101.132 38.0088 99.8332 38.5693C98.5343 39.1299 97.0441 39.4102 95.3625 39.4102C93.6808 39.4102 92.1837 39.1299 90.8712 38.5693C89.5724 38.0088 88.4718 37.2227 87.5695 36.2109C86.6808 35.1855 86.0041 33.9893 85.5392 32.6221C85.0744 31.2412 84.8419 29.7441 84.8419 28.1309ZM90.7482 27.7002V28.1309C90.7482 29.0605 90.8302 29.9287 90.9943 30.7354C91.1584 31.542 91.4181 32.2529 91.7736 32.8682C92.1427 33.4697 92.6212 33.9414 93.2091 34.2832C93.797 34.625 94.5148 34.7959 95.3625 34.7959C96.1828 34.7959 96.8869 34.625 97.4748 34.2832C98.0627 33.9414 98.5343 33.4697 98.8898 32.8682C99.2453 32.2529 99.505 31.542 99.6691 30.7354C99.8468 29.9287 99.9357 29.0605 99.9357 28.1309V27.7002C99.9357 26.7979 99.8468 25.9502 99.6691 25.1572C99.505 24.3506 99.2384 23.6396 98.8693 23.0244C98.5138 22.3955 98.0421 21.9033 97.4543 21.5479C96.8664 21.1924 96.1554 21.0146 95.3214 21.0146C94.4875 21.0146 93.7765 21.1924 93.1886 21.5479C92.6144 21.9033 92.1427 22.3955 91.7736 23.0244C91.4181 23.6396 91.1584 24.3506 90.9943 25.1572C90.8302 25.9502 90.7482 26.7979 90.7482 27.7002ZM108.549 28.1309V27.7002C108.549 26.0732 108.781 24.5762 109.246 23.209C109.711 21.8281 110.388 20.6318 111.277 19.6201C112.165 18.6084 113.259 17.8223 114.558 17.2617C115.857 16.6875 117.347 16.4004 119.028 16.4004C120.71 16.4004 122.207 16.6875 123.52 17.2617C124.832 17.8223 125.933 18.6084 126.821 19.6201C127.724 20.6318 128.407 21.8281 128.872 23.209C129.337 24.5762 129.569 26.0732 129.569 27.7002V28.1309C129.569 29.7441 129.337 31.2412 128.872 32.6221C128.407 33.9893 127.724 35.1855 126.821 36.2109C125.933 37.2227 124.839 38.0088 123.54 38.5693C122.241 39.1299 120.751 39.4102 119.069 39.4102C117.388 39.4102 115.891 39.1299 114.578 38.5693C113.279 38.0088 112.179 37.2227 111.277 36.2109C110.388 35.1855 109.711 33.9893 109.246 32.6221C108.781 31.2412 108.549 29.7441 108.549 28.1309ZM114.455 27.7002V28.1309C114.455 29.0605 114.537 29.9287 114.701 30.7354C114.865 31.542 115.125 32.2529 115.481 32.8682C115.85 33.4697 116.328 33.9414 116.916 34.2832C117.504 34.625 118.222 34.7959 119.069 34.7959C119.89 34.7959 120.594 34.625 121.182 34.2832C121.77 33.9414 122.241 33.4697 122.597 32.8682C122.952 32.2529 123.212 31.542 123.376 30.7354C123.554 29.9287 123.643 29.0605 123.643 28.1309V27.7002C123.643 26.7979 123.554 25.9502 123.376 25.1572C123.212 24.3506 122.945 23.6396 122.576 23.0244C122.221 22.3955 121.749 21.9033 121.161 21.5479C120.573 21.1924 119.862 21.0146 119.028 21.0146C118.194 21.0146 117.484 21.1924 116.896 21.5479C116.321 21.9033 115.85 22.3955 115.481 23.0244C115.125 23.6396 114.865 24.3506 114.701 25.1572C114.537 25.9502 114.455 26.7979 114.455 27.7002ZM146.304 34.1602V7.5H152.251V39H146.899L146.304 34.1602ZM132.277 28.1719V27.7412C132.277 26.0459 132.468 24.5078 132.851 23.127C133.234 21.7324 133.794 20.5361 134.532 19.5381C135.271 18.54 136.18 17.7676 137.26 17.2207C138.34 16.6738 139.57 16.4004 140.951 16.4004C142.25 16.4004 143.385 16.6738 144.356 17.2207C145.34 17.7676 146.174 18.5469 146.858 19.5586C147.555 20.5566 148.115 21.7393 148.539 23.1064C148.963 24.46 149.271 25.9434 149.462 27.5566V28.5C149.271 30.0449 148.963 31.4805 148.539 32.8066C148.115 34.1328 147.555 35.2949 146.858 36.293C146.174 37.2773 145.34 38.043 144.356 38.5898C143.371 39.1367 142.223 39.4102 140.91 39.4102C139.529 39.4102 138.299 39.1299 137.219 38.5693C136.152 38.0088 135.25 37.2227 134.512 36.2109C133.787 35.1992 133.234 34.0098 132.851 32.6426C132.468 31.2754 132.277 29.7852 132.277 28.1719ZM138.183 27.7412V28.1719C138.183 29.0879 138.251 29.9424 138.388 30.7354C138.538 31.5283 138.777 32.2324 139.106 32.8477C139.447 33.4492 139.885 33.9209 140.418 34.2627C140.965 34.5908 141.628 34.7549 142.407 34.7549C143.419 34.7549 144.253 34.5293 144.909 34.0781C145.566 33.6133 146.065 32.9775 146.406 32.1709C146.762 31.3643 146.967 30.4346 147.022 29.3818V26.6953C146.981 25.834 146.858 25.0615 146.652 24.3779C146.461 23.6807 146.174 23.0859 145.791 22.5938C145.422 22.1016 144.957 21.7188 144.397 21.4453C143.85 21.1719 143.2 21.0352 142.448 21.0352C141.683 21.0352 141.027 21.2129 140.48 21.5684C139.933 21.9102 139.488 22.3818 139.147 22.9834C138.819 23.585 138.572 24.2959 138.408 25.1162C138.258 25.9229 138.183 26.7979 138.183 27.7412ZM177.537 39.4102C175.815 39.4102 174.27 39.1367 172.902 38.5898C171.535 38.0293 170.373 37.2568 169.416 36.2725C168.473 35.2881 167.748 34.1465 167.242 32.8477C166.736 31.5352 166.484 30.1406 166.484 28.6641V27.8438C166.484 26.1621 166.723 24.624 167.201 23.2295C167.68 21.835 168.363 20.625 169.252 19.5996C170.154 18.5742 171.248 17.7881 172.533 17.2412C173.819 16.6807 175.268 16.4004 176.881 16.4004C178.453 16.4004 179.848 16.6602 181.065 17.1797C182.281 17.6992 183.3 18.4375 184.12 19.3945C184.954 20.3516 185.583 21.5 186.007 22.8398C186.431 24.166 186.643 25.6426 186.643 27.2695V29.7305H169.006V25.793H180.839V25.3418C180.839 24.5215 180.689 23.79 180.388 23.1475C180.101 22.4912 179.663 21.9717 179.075 21.5889C178.487 21.2061 177.736 21.0146 176.819 21.0146C176.04 21.0146 175.37 21.1855 174.81 21.5273C174.249 21.8691 173.791 22.3477 173.436 22.9629C173.094 23.5781 172.834 24.3027 172.656 25.1367C172.492 25.957 172.41 26.8594 172.41 27.8438V28.6641C172.41 29.5527 172.533 30.373 172.779 31.125C173.039 31.877 173.402 32.5264 173.866 33.0732C174.345 33.6201 174.919 34.0439 175.589 34.3447C176.273 34.6455 177.045 34.7959 177.906 34.7959C178.973 34.7959 179.964 34.5908 180.88 34.1807C181.81 33.7568 182.61 33.1211 183.279 32.2734L186.151 35.3906C185.686 36.0605 185.05 36.7031 184.243 37.3184C183.45 37.9336 182.493 38.4395 181.372 38.8359C180.251 39.2188 178.973 39.4102 177.537 39.4102ZM194.764 16.8105L198.435 23.5576L202.208 16.8105H208.504L202.229 27.6592L208.791 39H202.475L198.476 31.8633L194.477 39H188.16L194.723 27.6592L188.447 16.8105H194.764ZM217.281 21.0762V47.5312H211.375V16.8105H216.851L217.281 21.0762ZM231.329 27.6592V28.0898C231.329 29.7031 231.138 31.2002 230.755 32.5811C230.386 33.9619 229.839 35.165 229.114 36.1904C228.39 37.2021 227.487 37.9951 226.407 38.5693C225.341 39.1299 224.111 39.4102 222.716 39.4102C221.362 39.4102 220.187 39.1367 219.189 38.5898C218.191 38.043 217.35 37.2773 216.666 36.293C215.996 35.2949 215.456 34.1396 215.046 32.8271C214.636 31.5146 214.321 30.1064 214.103 28.6025V27.4746C214.321 25.8613 214.636 24.3848 215.046 23.0449C215.456 21.6914 215.996 20.5225 216.666 19.5381C217.35 18.54 218.184 17.7676 219.168 17.2207C220.166 16.6738 221.335 16.4004 222.675 16.4004C224.083 16.4004 225.32 16.667 226.387 17.2002C227.467 17.7334 228.369 18.499 229.094 19.4971C229.832 20.4951 230.386 21.6846 230.755 23.0654C231.138 24.4463 231.329 25.9775 231.329 27.6592ZM225.402 28.0898V27.6592C225.402 26.7158 225.32 25.8477 225.156 25.0547C225.006 24.248 224.76 23.5439 224.418 22.9424C224.09 22.3408 223.652 21.876 223.106 21.5479C222.572 21.2061 221.923 21.0352 221.157 21.0352C220.351 21.0352 219.66 21.165 219.086 21.4248C218.526 21.6846 218.068 22.0605 217.712 22.5527C217.357 23.0449 217.09 23.6328 216.912 24.3164C216.735 25 216.625 25.7725 216.584 26.6338V29.4844C216.652 30.4961 216.844 31.4053 217.158 32.2119C217.473 33.0049 217.958 33.6338 218.614 34.0986C219.271 34.5635 220.132 34.7959 221.198 34.7959C221.978 34.7959 222.634 34.625 223.167 34.2832C223.7 33.9277 224.131 33.4424 224.459 32.8271C224.801 32.2119 225.04 31.501 225.177 30.6943C225.327 29.8877 225.402 29.0195 225.402 28.0898ZM241.235 7.5V39H235.308V7.5H241.235ZM245.172 28.1309V27.7002C245.172 26.0732 245.404 24.5762 245.869 23.209C246.334 21.8281 247.011 20.6318 247.9 19.6201C248.788 18.6084 249.882 17.8223 251.181 17.2617C252.48 16.6875 253.97 16.4004 255.652 16.4004C257.333 16.4004 258.83 16.6875 260.143 17.2617C261.455 17.8223 262.556 18.6084 263.444 19.6201C264.347 20.6318 265.03 21.8281 265.495 23.209C265.96 24.5762 266.193 26.0732 266.193 27.7002V28.1309C266.193 29.7441 265.96 31.2412 265.495 32.6221C265.03 33.9893 264.347 35.1855 263.444 36.2109C262.556 37.2227 261.462 38.0088 260.163 38.5693C258.864 39.1299 257.374 39.4102 255.693 39.4102C254.011 39.4102 252.514 39.1299 251.201 38.5693C249.902 38.0088 248.802 37.2227 247.9 36.2109C247.011 35.1855 246.334 33.9893 245.869 32.6221C245.404 31.2412 245.172 29.7441 245.172 28.1309ZM251.078 27.7002V28.1309C251.078 29.0605 251.16 29.9287 251.324 30.7354C251.488 31.542 251.748 32.2529 252.104 32.8682C252.473 33.4697 252.951 33.9414 253.539 34.2832C254.127 34.625 254.845 34.7959 255.693 34.7959C256.513 34.7959 257.217 34.625 257.805 34.2832C258.393 33.9414 258.864 33.4697 259.22 32.8682C259.575 32.2529 259.835 31.542 259.999 30.7354C260.177 29.9287 260.266 29.0605 260.266 28.1309V27.7002C260.266 26.7979 260.177 25.9502 259.999 25.1572C259.835 24.3506 259.569 23.6396 259.199 23.0244C258.844 22.3955 258.372 21.9033 257.784 21.5479C257.196 21.1924 256.486 21.0146 255.652 21.0146C254.818 21.0146 254.107 21.1924 253.519 21.5479C252.944 21.9033 252.473 22.3955 252.104 23.0244C251.748 23.6396 251.488 24.3506 251.324 25.1572C251.16 25.9502 251.078 26.7979 251.078 27.7002ZM275.729 21.6504V39H269.822V16.8105H275.38L275.729 21.6504ZM282.414 16.667L282.312 22.1426C282.025 22.1016 281.676 22.0674 281.266 22.04C280.869 21.999 280.507 21.9785 280.179 21.9785C279.345 21.9785 278.62 22.0879 278.005 22.3066C277.403 22.5117 276.898 22.8193 276.487 23.2295C276.091 23.6396 275.79 24.1387 275.585 24.7266C275.394 25.3145 275.284 25.9844 275.257 26.7363L274.068 26.3672C274.068 24.9316 274.211 23.6123 274.498 22.4092C274.785 21.1924 275.202 20.1328 275.749 19.2305C276.31 18.3281 276.993 17.6309 277.8 17.1387C278.607 16.6465 279.529 16.4004 280.569 16.4004C280.897 16.4004 281.232 16.4277 281.573 16.4824C281.915 16.5234 282.195 16.585 282.414 16.667ZM295.006 39.4102C293.283 39.4102 291.738 39.1367 290.371 38.5898C289.004 38.0293 287.842 37.2568 286.885 36.2725C285.942 35.2881 285.217 34.1465 284.711 32.8477C284.205 31.5352 283.952 30.1406 283.952 28.6641V27.8438C283.952 26.1621 284.192 24.624 284.67 23.2295C285.149 21.835 285.832 20.625 286.721 19.5996C287.623 18.5742 288.717 17.7881 290.002 17.2412C291.287 16.6807 292.736 16.4004 294.35 16.4004C295.922 16.4004 297.317 16.6602 298.533 17.1797C299.75 17.6992 300.769 18.4375 301.589 19.3945C302.423 20.3516 303.052 21.5 303.476 22.8398C303.9 24.166 304.111 25.6426 304.111 27.2695V29.7305H286.475V25.793H298.308V25.3418C298.308 24.5215 298.157 23.79 297.857 23.1475C297.569 22.4912 297.132 21.9717 296.544 21.5889C295.956 21.2061 295.204 21.0146 294.288 21.0146C293.509 21.0146 292.839 21.1855 292.278 21.5273C291.718 21.8691 291.26 22.3477 290.904 22.9629C290.563 23.5781 290.303 24.3027 290.125 25.1367C289.961 25.957 289.879 26.8594 289.879 27.8438V28.6641C289.879 29.5527 290.002 30.373 290.248 31.125C290.508 31.877 290.87 32.5264 291.335 33.0732C291.814 33.6201 292.388 34.0439 293.058 34.3447C293.741 34.6455 294.514 34.7959 295.375 34.7959C296.442 34.7959 297.433 34.5908 298.349 34.1807C299.278 33.7568 300.078 33.1211 300.748 32.2734L303.619 35.3906C303.154 36.0605 302.519 36.7031 301.712 37.3184C300.919 37.9336 299.962 38.4395 298.841 38.8359C297.72 39.2188 296.442 39.4102 295.006 39.4102ZM313.381 21.6504V39H307.475V16.8105H313.032L313.381 21.6504ZM320.067 16.667L319.964 22.1426C319.677 22.1016 319.328 22.0674 318.918 22.04C318.522 21.999 318.159 21.9785 317.831 21.9785C316.997 21.9785 316.273 22.0879 315.657 22.3066C315.056 22.5117 314.55 22.8193 314.14 23.2295C313.743 23.6396 313.443 24.1387 313.237 24.7266C313.046 25.3145 312.937 25.9844 312.909 26.7363L311.72 26.3672C311.72 24.9316 311.863 23.6123 312.151 22.4092C312.438 21.1924 312.855 20.1328 313.402 19.2305C313.962 18.3281 314.646 17.6309 315.452 17.1387C316.259 16.6465 317.182 16.4004 318.221 16.4004C318.549 16.4004 318.884 16.4277 319.226 16.4824C319.568 16.5234 319.848 16.585 320.067 16.667Z" fill="#4D585E"/>
<path d="M24.7142 0.498718L46.1173 12.3741V36.1248L24.7142 48.0001L3.31107 36.1248V12.3741L24.7142 0.498718Z" fill="#065E7C"/>
</svg>
